<svg width="35" height="36" viewBox="0 0 35 36" fill="none" xmlns="http://www.w3.org/2000/svg">
<path d="M20.6411 16.6774L19.2087 15.4131C18.3493 14.6694 17.8659 14.0558 17.8659 13.2191C17.8659 12.1593 18.6179 11.2111 20.2114 11.2111C21.2856 11.2111 22.2883 11.6015 23.2014 12.5126L27.1583 9.44475C26.1019 8.01309 23.9534 6.63721 20.7843 6.63721C16.1113 6.63721 12.7094 9.79802 12.7094 13.9628C12.7094 16.0639 13.8195 17.5141 15.2698 18.797L16.7021 20.0613C17.6868 20.9538 18.0986 21.5116 18.0986 22.2925C18.0986 23.4639 17.293 24.5794 15.2698 24.5794C13.7658 24.5794 12.423 23.9659 11.4203 22.7945L7.49927 25.8438C8.96743 27.7217 11.474 29.1719 14.9117 29.1719C20.1935 29.1719 23.2551 25.8624 23.2551 21.493C23.273 19.2804 22.0197 17.886 20.6411 16.6774Z" fill="white"/>
</svg>
